<svg xmlns="http://www.w3.org/2000/svg" version="1.1" xmlns:xlink="http://www.w3.org/1999/xlink" xmlns:svgjs="http://svgjs.dev/svgjs" width="1440" height="560" preserveAspectRatio="none" viewBox="0 0 1440 560"><g mask="url(&quot;#SvgjsMask1015&quot;)" fill="none"><rect width="1440" height="560" x="0" y="0" fill="rgba(30, 100, 238, 1)"></rect><path d="M548 658.2C637 657.2 620.19 562.93 889.86 558.73 1159.53 554.53 1392.86 326.79 1573.59 323.53" stroke="rgba(120, 162, 245, 1)" stroke-width="2"></path><path d="M93.46 574C297.05 553.82 428.6 120.97 774.34 120.04 1120.07 119.11 1276.89 330.38 1455.21 332.84" stroke="rgba(120, 162, 245, 1)" stroke-width="2"></path><path d="M900.85 567.65C1010.32 512.33 957.07 156.02 1163.32 153.16 1369.57 150.3 1550.47 319.13 1688.25 321.16" stroke="rgba(120, 162, 245, 1)" stroke-width="2"></path><path d="M685.26 573.68C832.21 544.08 899.01 167.81 1125.27 166.34 1351.53 164.87 1444.94 357.97 1565.28 362.34" stroke="rgba(120, 162, 245, 1)" stroke-width="2"></path><path d="M201.35 641.19C381.82 637.1 516.35 396.76 877.7 388.36 1239.06 379.96 1373.17 135.07 1554.06 130.76" stroke="rgba(120, 162, 245, 1)" stroke-width="2"></path></g><defs><mask id="SvgjsMask1015"><rect width="1440" height="560" fill="#ffffff"></rect></mask></defs></svg>